<svg width="63" height="29" viewBox="0 0 63 29" fill="none" xmlns="http://www.w3.org/2000/svg">
<g id="Title">
<rect id="Rectangle 260" opacity="0.2" x="0.0463867" y="16" width="62" height="11" fill="#FF4F6E"/>
<path id="&#237;&#154;&#140;&#236;&#155;&#144;&#234;&#176;&#128;&#236;&#158;&#133;" d="M19.543 20.3281H11.2227V17.1172H17.7852V14.6797H5.26953V12.2891H17.293V5.21094H2.24609V7.60156H14.3398V9.94531H2.26953V17.1172H8.24609V20.3281H0.0195312V22.7891H19.543V20.3281ZM37.8242 5.79688H22.7773V8.1875H34.8477V8.35156C34.8359 11.1875 34.8359 14.2344 34.0273 18.3359L37.0508 18.5938C37.8125 14.1758 37.8125 11.2812 37.8242 8.35156V5.79688ZM20.7617 22.3672H40.2148V19.9062H20.7617V22.3672ZM59.3633 3.85156H56.3633V19.1797H59.3633V3.85156ZM41.832 10.5781C41.832 13.7539 44.3867 15.9922 47.668 15.9922C50.9375 15.9922 53.4922 13.7539 53.5039 10.5781C53.4922 7.44922 50.9375 5.19922 47.668 5.21094C44.3867 5.19922 41.832 7.44922 41.832 10.5781ZM44.7617 10.5781C44.7383 8.84375 45.9922 7.80078 47.668 7.8125C49.2852 7.80078 50.5391 8.84375 50.5508 10.5781C50.5391 12.3594 49.2852 13.3906 47.668 13.3906C45.9922 13.3906 44.7383 12.3594 44.7617 10.5781ZM45.0664 24.7812H59.9258V22.3906H48.0898V17.6328H45.0664V24.7812Z" fill="#29363D"/>
<rect id="Rectangle 261" y="27" width="62" height="2" fill="#FF4F6E"/>
</g>
</svg>
